<?xml version="1.0" encoding="UTF-8"?>
<svg version="1.1" xmlns="http://www.w3.org/2000/svg" width="512" height="512">
<path d="M0 0 C1.42640422 -0.00604861 2.85280196 -0.01383038 4.27918833 -0.02318513 C8.18074425 -0.04369166 12.08193151 -0.03939551 15.98351729 -0.03082395 C20.19839193 -0.02587962 24.41317893 -0.04392999 28.62802124 -0.05889893 C36.87860062 -0.08437041 45.12904975 -0.08798311 53.37966184 -0.0832984 C60.08797865 -0.07972905 66.796256 -0.08323777 73.5045681 -0.09174728 C74.460159 -0.09293766 75.41574991 -0.09412804 76.40029811 -0.09535449 C78.34173754 -0.09777805 80.28317696 -0.10020632 82.22461637 -0.10263924 C100.42328011 -0.12438188 118.62186969 -0.12006936 136.82053759 -0.10786955 C153.45679127 -0.09753329 170.09281067 -0.12003792 186.72901801 -0.15806599 C203.82421065 -0.19684267 220.91929251 -0.21333123 238.01452941 -0.20581949 C247.60693077 -0.20199822 257.19913276 -0.20694323 266.79149818 -0.23524857 C274.95820824 -0.25910375 283.12459623 -0.26185562 291.29131082 -0.23766823 C295.45499225 -0.2259093 299.618085 -0.2236382 303.78172684 -0.24767303 C307.59979399 -0.26945615 311.41678337 -0.26311049 315.23480078 -0.23514967 C317.25657118 -0.22739006 319.27839004 -0.24889856 321.30004627 -0.27174342 C330.67412158 -0.16132362 338.49609006 1.99733609 345.78867179 8.14468992 C352.55428305 15.40415119 354.46031316 23.57740421 354.38435364 33.24168396 C354.39200473 34.2862964 354.39965583 35.33090884 354.40753877 36.4071762 C354.42809016 39.88922255 354.42023567 43.3706026 354.41227722 46.85269165 C354.42097628 49.35669054 354.43134418 51.86068411 354.44325256 54.3646698 C354.4672288 60.44958323 354.47234146 66.53423718 354.46765204 72.61917404 C354.46407833 77.56834246 354.46760068 82.51745745 354.47610092 87.46661949 C354.4772913 88.17242788 354.47848168 88.87823628 354.47970813 89.6054328 C354.48213177 91.03954223 354.48456004 92.47365165 354.48699288 93.90776106 C354.50872124 107.34227199 354.5044299 120.77668239 354.49222319 134.21119895 C354.4818891 146.48258059 354.50438815 158.75364449 354.54241963 171.0249633 C354.58123092 183.64531468 354.59767878 196.26551596 354.59017313 208.88592738 C354.58635695 215.96324573 354.59124658 223.04029379 354.6196022 230.11756325 C354.64600826 236.7752669 354.64083678 243.43223387 354.61478043 250.08997154 C354.61005759 252.52796521 354.61548717 254.96600379 354.63202667 257.40394592 C354.78979311 282.47423636 354.78979311 282.47423636 346.23964882 292.40725422 C338.83315186 299.48468588 330.38707023 301.11475813 320.46818542 300.97549438 C319.36471771 300.97607849 318.26125 300.9766626 317.12434387 300.9772644 C313.50433569 300.97449444 309.88516758 300.94345261 306.26530457 300.91201782 C303.74468434 300.9045516 301.22405829 300.89886047 298.70343018 300.89486694 C292.76433801 300.88119418 286.82551199 300.84972117 280.88655621 300.80946898 C272.26559572 300.75231932 263.64453239 300.7315294 255.02342987 300.70623779 C242.96969383 300.66753237 230.91673554 300.59085591 218.86296082 300.52139282 C218.86296082 320.32139282 218.86296082 340.12139282 218.86296082 360.52139282 C230.44073347 360.3634827 230.44073347 360.3634827 242.01774597 360.16104126 C243.47915982 360.14934868 244.94058678 360.1391582 246.40202332 360.13076782 C247.1486322 360.11030396 247.89524109 360.08984009 248.66447449 360.0687561 C253.8560929 360.06531908 256.72583418 361.1238337 260.86296082 364.52139282 C264.9192648 369.7439914 264.63693625 375.17479424 263.86296082 381.52139282 C261.68619692 386.11678328 259.39987528 388.33448805 254.86296082 390.52139282 C252.166984 390.80644175 249.7055284 390.93128883 247.01300049 390.90907288 C246.22891971 390.91445841 245.44483892 390.91984395 244.63699812 390.92539269 C242.0130214 390.93968565 239.38954821 390.93256534 236.76554871 390.92544556 C234.88294062 390.93114843 233.00033599 390.93811236 231.11773682 390.94624329 C226.00617302 390.96419894 220.89478066 390.96300178 215.78319478 390.9573009 C211.51618824 390.95421255 207.2492148 390.96029757 202.98221296 390.96633965 C192.91614849 390.98039116 182.85016887 390.97881835 172.78410339 390.96743774 C162.39859633 390.95595547 152.01334747 390.97003267 141.62787443 390.99683422 C132.71138694 391.01898346 123.79498055 391.02563035 114.8784675 391.01975781 C109.55295946 391.01638523 104.22761695 391.01882334 98.90213203 391.03600883 C93.89436106 391.05146349 88.88697291 391.04753878 83.87921715 391.02870369 C82.04180602 391.02501373 80.20436662 391.02813812 78.36698151 391.03858948 C75.85751364 391.05177347 73.34931794 391.04027567 70.83990479 391.02259827 C70.11373036 391.03220327 69.38755593 391.04180828 68.63937622 391.05170435 C63.59856486 390.97870179 60.75494959 389.67041093 56.86296082 386.52139282 C52.80665683 381.29879425 53.08898538 375.8679914 53.86296082 369.52139282 C56.03639646 364.93302867 58.3154752 362.67960658 62.86296082 360.52139282 C65.72784334 360.26942188 68.36907241 360.17008949 71.22624207 360.22842407 C72.28023193 360.23295593 72.28023193 360.23295593 73.35551453 360.23757935 C75.96231424 360.25319061 78.56890339 360.29507443 81.17546082 360.33389282 C87.01233582 360.39576782 92.84921082 360.45764282 98.86296082 360.52139282 C98.86296082 340.72139282 98.86296082 320.92139282 98.86296082 300.52139282 C73.45296082 300.52139282 48.04296082 300.52139282 21.86296082 300.52139282 C21.90936707 306.29897095 21.95577332 312.07654907 22.00358582 318.02920532 C22.02402827 321.69328583 22.04328428 325.35729586 22.05827332 329.02139282 C22.08216843 334.83501825 22.1104115 340.64839126 22.16471863 346.46182251 C22.20823632 351.14970539 22.23211057 355.8373175 22.24246979 360.52538681 C22.24985053 362.3123488 22.26426352 364.09929626 22.28588104 365.88614273 C22.31499426 368.39265001 22.31891359 370.89804397 22.31706238 373.4046936 C22.33144348 374.14053177 22.34582458 374.87636993 22.36064148 375.63450623 C22.31991399 380.74368045 21.16586728 383.64573133 17.86296082 387.52139282 C13.89520341 390.45401441 11.04231733 390.8990215 6.1519165 390.90907288 C5.49034229 390.91445841 4.82876808 390.91984395 4.14714617 390.92539269 C1.9377247 390.93966207 -0.27109677 390.93257146 -2.48054504 390.92544556 C-4.06759115 390.93114969 -5.65463316 390.93811412 -7.2416687 390.94624329 C-11.54748246 390.96418525 -15.85309254 390.96300437 -20.15893245 390.9573009 C-23.75490269 390.95421051 -27.35083372 390.96029984 -30.94679838 390.96633965 C-39.43073669 390.9803867 -47.91457431 390.97882212 -56.39851379 390.96743774 C-65.14809185 390.95595629 -73.8973634 390.97003218 -82.64690107 390.99683422 C-90.16212972 391.01899249 -97.67726216 391.02562832 -105.19252115 391.01975781 C-109.67967065 391.01638733 -114.16662366 391.01880929 -118.65374565 391.03600883 C-122.87359646 391.05147796 -127.09299329 391.04752302 -131.31282616 391.02870369 C-132.85997684 391.02501768 -134.40716116 391.02812669 -135.95428085 391.03858948 C-138.06971319 391.05180151 -140.183643 391.04025274 -142.29901123 391.02259827 C-143.48163009 391.02238898 -144.66424894 391.0221797 -145.88270473 391.02196407 C-149.91282129 390.40206452 -152.00623352 389.10892747 -155.13703918 386.52139282 C-157.85619538 382.77540768 -158.51277804 380.18026972 -158.51735592 375.5817728 C-158.52579586 374.38419647 -158.5342358 373.18662013 -158.5429315 371.9527536 C-158.53692145 370.64070621 -158.53091141 369.32865882 -158.52471924 367.97685242 C-158.52889219 366.56612726 -158.5343695 365.15540545 -158.54103905 363.74468988 C-158.55551755 359.86816528 -158.5512415 355.99185285 -158.54387224 352.11531651 C-158.5391488 347.93458939 -158.55164309 343.75390872 -158.56188965 339.57319641 C-158.57909911 331.38291542 -158.57991323 323.19271106 -158.57467674 315.00241668 C-158.57063786 308.34640033 -158.57207525 301.69040666 -158.577425 295.0343914 C-158.57817343 294.08762765 -158.57892185 293.14086389 -158.57969295 292.16541032 C-158.5812244 290.24215837 -158.58276275 288.31890643 -158.58430792 286.39565449 C-158.59804069 268.35361969 -158.59258978 250.31162824 -158.5811227 232.26959442 C-158.57118916 215.75841401 -158.5841317 199.24734565 -158.6080569 182.73618252 C-158.6324305 165.78805759 -158.64206007 148.83998489 -158.63540417 131.89184278 C-158.63190812 122.37451287 -158.63416942 112.85726915 -158.6516552 103.33995247 C-158.66635544 95.23817387 -158.66704119 87.13654215 -158.64958429 79.0347665 C-158.64105395 74.9003274 -158.63897408 70.76615093 -158.65423584 66.63172531 C-158.66803271 62.8473235 -158.66338489 59.06341057 -158.6439966 55.27903741 C-158.63843127 53.26060941 -158.65254973 51.24215684 -158.66735071 49.22377545 C-158.57809491 38.30873411 -158.57809491 38.30873411 -154.13703918 33.52139282 C-149.53769225 29.39505403 -144.03566289 30.12017907 -138.19636536 30.18081665 C-137.09348175 30.18037857 -135.99059814 30.17994049 -134.85429382 30.17948914 C-131.21268447 30.1815774 -127.57153677 30.20491106 -123.93000793 30.22842407 C-121.40366874 30.23401987 -118.87732628 30.23829004 -116.35098267 30.24128723 C-110.38346633 30.25156722 -104.41614784 30.27520599 -98.44871074 30.3053357 C-91.65310056 30.33890005 -84.85748237 30.35537081 -78.0618099 30.37042201 C-64.08679483 30.40175628 -50.11192607 30.45450402 -36.13703918 30.52139282 C-36.15903381 29.26729614 -36.18102844 28.01319946 -36.20368958 26.72109985 C-36.32379214 19.87305382 -32.82746684 13.73709445 -28.49641418 8.56045532 C-20.08423115 0.81652981 -11.04082514 -0.06361445 0 0 Z " fill="#3E5959" transform="translate(158.1370391845703,60.478607177734375)"/>
<path d="M0 0 C108.9 0 217.8 0 330 0 C330 79.2 330 158.4 330 240 C221.1 240 112.2 240 0 240 C0 160.8 0 81.6 0 0 Z " fill="#159BE1" transform="translate(152,91)"/>
<path d="M0 0 C1.10288361 -0.00043808 2.20576721 -0.00087616 3.34207153 -0.00132751 C6.98368088 0.00076075 10.62482859 0.02409441 14.26635742 0.04760742 C16.79269662 0.05320322 19.31903907 0.05747339 21.84538269 0.06047058 C27.81289902 0.07075057 33.78021751 0.09438934 39.74765462 0.12451905 C46.5432648 0.1580834 53.33888299 0.17455416 60.13455546 0.18960536 C74.10957052 0.22093963 88.08443929 0.27368737 102.05932617 0.34057617 C102.06171453 1.58886892 102.06410288 2.83716167 102.06656361 4.12328148 C102.12396279 33.77637614 102.19672124 63.42938992 102.28831245 93.08239683 C102.29958019 96.73469976 102.31071871 100.38700307 102.32177734 104.03930664 C102.32398103 104.76639354 102.32618471 105.49348044 102.32845517 106.24260028 C102.36379694 118.00491167 102.38867867 129.76722301 102.40967319 141.52956776 C102.43146014 153.60497096 102.46453798 165.68030544 102.50802773 177.75565016 C102.53212386 184.53559885 102.5510574 191.31547929 102.55694008 198.09547043 C102.56299147 204.47958477 102.58299386 210.86350477 102.61360168 217.24754715 C102.62238093 219.58799133 102.62610473 221.92846092 102.62433434 224.2689209 C102.62267718 227.47111987 102.63941927 230.67272947 102.66059875 233.87484741 C102.65575118 234.79511038 102.6509036 235.71537335 102.64590913 236.66352308 C102.74149566 245.45604063 104.56304214 253.56298691 110.17651367 260.51635742 C116.82880821 266.96163034 123.95227901 269.45520518 133.00854492 269.65698242 C133.78116165 269.67776352 134.55377838 269.69854462 135.34980774 269.71995544 C137.81539097 269.78528655 140.28107978 269.84425932 142.74682617 269.90307617 C144.41936309 269.94627704 146.09188936 269.98989184 147.7644043 270.03393555 C151.86260367 270.14095107 155.96090913 270.24226474 160.05932617 270.34057617 C160.15207882 280.79796382 160.22311797 291.25525333 160.26657486 301.71296883 C160.28743392 306.56912916 160.31572088 311.4250077 160.36108398 316.28100586 C160.40460168 320.96888874 160.42847593 325.65650085 160.43883514 330.34457016 C160.44621588 332.13153215 160.46062888 333.91847961 160.4822464 335.70532608 C160.51135962 338.21183336 160.51527894 340.71722732 160.51342773 343.22387695 C160.52780884 343.95971512 160.54218994 344.69555328 160.55700684 345.45368958 C160.51627935 350.5628638 159.36223264 353.46491468 156.05932617 357.34057617 C152.09156877 360.27319776 149.23868269 360.71820485 144.34828186 360.72825623 C143.68670765 360.73364176 143.02513344 360.7390273 142.34351152 360.74457604 C140.13409005 360.75884542 137.92526859 360.75175481 135.71582031 360.74462891 C134.1287742 360.75033304 132.5417322 360.75729747 130.95469666 360.76542664 C126.6488829 360.7833686 122.34327282 360.78218772 118.03743291 360.77648425 C114.44146267 360.77339386 110.84553163 360.77948319 107.24956697 360.785523 C98.76562866 360.79957005 90.28179105 360.79800547 81.79785156 360.78662109 C73.0482735 360.77513964 64.29900195 360.78921553 55.54946429 360.81601757 C48.03423564 360.83817584 40.5191032 360.84481167 33.0038442 360.83894116 C28.51669471 360.83557068 24.0297417 360.83799264 19.54261971 360.85519218 C15.3227689 360.87066131 11.10337207 360.86670637 6.8835392 360.84788704 C5.33638852 360.84420103 3.7892042 360.84731003 2.2420845 360.85777283 C0.12665217 360.87098486 -1.98727764 360.85943609 -4.10264587 360.84178162 C-5.28526473 360.84157233 -6.46788359 360.84136305 -7.68633938 360.84114742 C-11.71645593 360.22124787 -13.80986816 358.92811082 -16.94067383 356.34057617 C-19.65983002 352.59459103 -20.31641268 349.99945307 -20.32099056 345.40095615 C-20.3294305 344.20337982 -20.33787044 343.00580348 -20.34656614 341.77193695 C-20.3405561 340.45988956 -20.33454605 339.14784217 -20.32835388 337.79603577 C-20.33252684 336.3853106 -20.33800414 334.9745888 -20.34467369 333.56387323 C-20.35915219 329.68734863 -20.35487614 325.8110362 -20.34750688 321.93449986 C-20.34278344 317.75377274 -20.35527773 313.57309207 -20.36552429 309.39237976 C-20.38273376 301.20209876 -20.38354787 293.01189441 -20.37831139 284.82160003 C-20.3742725 278.16558368 -20.3757099 271.50959001 -20.38105965 264.85357475 C-20.38180807 263.906811 -20.38255649 262.96004724 -20.38332759 261.98459367 C-20.38485904 260.06134172 -20.38639739 258.13808978 -20.38794256 256.21483784 C-20.40167533 238.17280304 -20.39622442 220.13081159 -20.38475735 202.08877777 C-20.37482381 185.57759736 -20.38776635 169.06652899 -20.41169154 152.55536587 C-20.43606514 135.60724094 -20.44569471 118.65916824 -20.43903881 101.71102613 C-20.43554276 92.19369622 -20.43780407 82.6764525 -20.45528984 73.15913582 C-20.46999008 65.05735722 -20.47067584 56.9557255 -20.45321893 48.85394985 C-20.44468859 44.71951075 -20.44260873 40.58533428 -20.45787048 36.45090866 C-20.47166735 32.66650685 -20.46701953 28.88259392 -20.44763125 25.09822076 C-20.44206592 23.07979276 -20.45618438 21.06134019 -20.47098535 19.0429588 C-20.37970647 7.88051579 -20.37970647 7.88051579 -15.94067383 3.34057617 C-11.34132689 -0.78576262 -5.83929753 -0.06063759 0 0 Z " fill="#3E5959" transform="translate(19.940673828125,90.659423828125)"/>
<path d="M0 0 C54.45 0 108.9 0 165 0 C165 79.2 165 158.4 165 240 C110.55 240 56.1 240 0 240 C0 160.8 0 81.6 0 0 Z " fill="#19C0EF" transform="translate(152,91)"/>
<path d="M0 0 C1.70573907 0.00112969 3.41148008 0.00049225 5.11721802 -0.00177002 C9.72621461 -0.00291336 14.33479119 0.02053416 18.94369054 0.04852581 C23.76830088 0.07360303 28.59292182 0.07588644 33.41758728 0.08062744 C42.54407476 0.09303868 51.6703696 0.12583517 60.79677242 0.1660254 C71.19095202 0.21080083 81.58514102 0.23274465 91.97939312 0.25280714 C113.35217637 0.29456948 134.72477529 0.36569521 156.09741211 0.45410156 C156.09741211 10.35410156 156.09741211 20.25410156 156.09741211 30.45410156 C101.64741211 30.45410156 47.19741211 30.45410156 -8.90258789 30.45410156 C-8.90258789 109.65410156 -8.90258789 188.85410156 -8.90258789 270.45410156 C45.54741211 270.45410156 99.99741211 270.45410156 156.09741211 270.45410156 C156.09741211 280.35410156 156.09741211 290.25410156 156.09741211 300.45410156 C133.87872653 300.5932036 111.66014644 300.70017543 89.44111252 300.76497459 C79.12359511 300.79586644 68.80635382 300.8379574 58.48901367 300.90673828 C49.49272127 300.96668359 40.49662892 301.00528464 31.50014234 301.01863253 C26.73980002 301.02643075 21.98002983 301.04466006 17.21987152 301.0884819 C12.73162059 301.12946253 8.24417284 301.14171972 3.75575256 301.13274765 C2.11594007 301.13438699 0.47609836 301.14617005 -1.16355133 301.16933441 C-12.17124928 301.31710882 -21.61714199 300.14372547 -30.15736771 292.41306114 C-37.98235222 284.20395501 -39.04979853 275.25930674 -39.06321716 264.36668396 C-39.06830498 263.34182343 -39.0733928 262.3169629 -39.0786348 261.26104599 C-39.09434836 257.82206259 -39.1028815 254.38310019 -39.11132812 250.9440918 C-39.12086746 248.4800961 -39.13075866 246.01610174 -39.14097595 243.55210876 C-39.1696423 236.15474709 -39.18943956 228.75738575 -39.2063683 221.35998997 C-39.21116706 219.26904991 -39.21614991 217.17811037 -39.22117352 215.08717084 C-39.25214722 202.08980119 -39.27881913 189.09242698 -39.29559231 176.09503078 C-39.2995415 173.08670989 -39.30354454 170.07838908 -39.30761719 167.07006836 C-39.30862555 166.32240867 -39.30963391 165.57474898 -39.31067283 164.80443294 C-39.32766888 152.70095195 -39.36876903 140.59767581 -39.41964018 128.49429476 C-39.47149155 116.05490267 -39.50054435 103.61561575 -39.50778919 91.17611653 C-39.51244181 84.19706622 -39.5270914 77.21835145 -39.56753349 70.23940849 C-39.60555431 63.67052401 -39.61279225 57.10210591 -39.59952736 50.53309059 C-39.59958122 48.12733039 -39.60984213 45.72154452 -39.63127899 43.31587982 C-39.84036946 18.51812476 -39.84036946 18.51812476 -31.27908993 8.56705379 C-29.57650241 6.94112779 -27.89783538 5.69875228 -25.90258789 4.45410156 C-25.33016137 4.09005344 -24.75773485 3.72600533 -24.16796207 3.35092545 C-16.52135547 -0.68913576 -8.39698761 -0.07806817 0 0 Z " fill="#537882" transform="translate(160.902587890625,60.5458984375)"/>
<path d="M0 0 C10.56 0 21.12 0 32 0 C32.00586624 3.03464447 32.01173248 6.06928894 32.01777649 9.19589233 C32.07298931 37.04458757 32.14296841 64.8932052 32.22898628 92.74182066 C32.24025402 96.39412359 32.25139254 100.0464269 32.26245117 103.69873047 C32.26465486 104.42581737 32.26685854 105.15290427 32.269129 105.90202411 C32.30447076 117.6643355 32.3293525 129.42664684 32.35034702 141.18899159 C32.37213397 153.26439479 32.40521181 165.33972927 32.44870156 177.41507399 C32.47279769 184.19502268 32.49173123 190.97490312 32.49761391 197.75489426 C32.5036653 204.1390086 32.52366769 210.5229286 32.55427551 216.90697098 C32.56305476 219.24741516 32.56677856 221.58788475 32.56500816 223.92834473 C32.56335101 227.13054369 32.5800931 230.33215329 32.60127258 233.53427124 C32.59642501 234.45453421 32.59157743 235.37479718 32.58658296 236.32294691 C32.68216949 245.11546445 34.50371597 253.22241073 40.1171875 260.17578125 C46.76948204 266.62105417 53.89295284 269.11462901 62.94921875 269.31640625 C64.10814384 269.3475779 64.10814384 269.3475779 65.29048157 269.37937927 C67.7560648 269.44471038 70.22175361 269.50368315 72.6875 269.5625 C74.36003691 269.60570087 76.03256319 269.64931566 77.70507812 269.69335938 C81.8032775 269.8003749 85.90158296 269.90168857 90 270 C90.09275265 280.45738765 90.1637918 290.91467715 90.20724869 301.37239265 C90.22810775 306.22855299 90.2563947 311.08443152 90.30175781 315.94042969 C90.34527551 320.62831256 90.36914976 325.31592468 90.37950897 330.00399399 C90.38688971 331.79095598 90.40130271 333.57790344 90.42292023 335.36474991 C90.45203345 337.87125718 90.45595277 340.37665115 90.45410156 342.88330078 C90.46848267 343.61913895 90.48286377 344.35497711 90.49768066 345.1131134 C90.45695317 350.22228763 89.30290646 353.12433851 86 357 C81.93057437 360.35298504 78.07046407 360.41458335 72.99682617 360.34057617 C72.20605682 360.34101425 71.41528748 360.34145233 70.60055542 360.34190369 C67.99777168 360.33982069 65.39563938 360.31651314 62.79296875 360.29296875 C60.98407849 360.28737105 59.17518367 360.28310177 57.36628723 360.28010559 C52.61344773 360.26867053 47.86088479 360.23921488 43.1081543 360.20599365 C38.25508363 360.17526389 33.40196812 360.16159404 28.54882812 360.14648438 C19.03241124 360.11434383 9.51627193 360.06158684 0 360 C0 351.09 0 342.18 0 333 C2.97 332.01 5.94 331.02 9 330 C12.75463157 326.24536843 14.13999735 322.94429133 14.3125 317.6875 C14.244793 313.06085507 13.16491776 310.498067 10 307 C6.60821712 304.95079785 3.85857346 303.96464337 0 303 C0 203.01 0 103.02 0 0 Z " fill="#293939" transform="translate(90,91)"/>
<path d="M0 0 C19.8 0 39.6 0 60 0 C60 19.8 60 39.6 60 60 C66.86039062 59.95359375 73.72078125 59.9071875 80.7890625 59.859375 C85.13673389 59.83893547 89.484346 59.81967959 93.83203125 59.8046875 C100.73205883 59.78078141 107.63187398 59.75250831 114.53173828 59.69824219 C120.09493716 59.65476278 125.6579082 59.63085816 131.22126389 59.62049103 C133.34314943 59.61310348 135.46502258 59.59867734 137.58681107 59.57707977 C140.56026348 59.54801845 143.53277594 59.54404521 146.50634766 59.54589844 C147.82049652 59.52432678 147.82049652 59.52432678 149.16119385 59.50231934 C154.59690668 59.53894786 157.68951887 60.37626465 162 64 C166.05630398 69.22259857 165.77397544 74.65340142 165 81 C162.8232361 85.59539045 160.53691447 87.81309522 156 90 C153.30402319 90.28504893 150.84256758 90.40989601 148.15003967 90.38768005 C147.36595889 90.39306559 146.58187811 90.39845113 145.7740373 90.40399987 C143.15006059 90.41829283 140.52658739 90.41117252 137.90258789 90.40405273 C136.0199798 90.4097556 134.13737517 90.41671954 132.254776 90.42485046 C127.1432122 90.44280612 122.03181984 90.44160896 116.92023396 90.43590808 C112.65322742 90.43281972 108.38625398 90.43890475 104.11925215 90.44494683 C94.05318767 90.45899834 83.98720805 90.45742553 73.92114258 90.44604492 C63.53563552 90.43456265 53.15038665 90.44863985 42.76491362 90.4754414 C33.84842613 90.49759064 24.93201973 90.50423753 16.01550668 90.49836498 C10.68999865 90.49499241 5.36465613 90.49743052 0.03917122 90.51461601 C-4.96859975 90.53007066 -9.9759879 90.52614596 -14.98374367 90.50731087 C-16.8211548 90.50362091 -18.6585942 90.5067453 -20.49597931 90.51719666 C-23.00544718 90.53038065 -25.51364287 90.51888285 -28.02305603 90.50120544 C-28.74923046 90.51081045 -29.47540488 90.52041546 -30.22358459 90.53031152 C-35.26439596 90.45730897 -38.10801122 89.14901811 -42 86 C-46.05630398 80.77740143 -45.77397544 75.34659858 -45 69 C-42.82656435 64.41163585 -40.54748562 62.15821376 -36 60 C-33.13511747 59.74802906 -30.49388841 59.64869667 -27.63671875 59.70703125 C-26.58272888 59.71156311 -26.58272888 59.71156311 -25.50744629 59.71618652 C-22.90064657 59.73179779 -20.29405742 59.77368161 -17.6875 59.8125 C-8.9321875 59.9053125 -8.9321875 59.9053125 0 60 C0 40.2 0 20.4 0 0 Z " fill="#3E5959" transform="translate(257,361)"/>
<path d="M0 0 C0.79076935 -0.00043808 1.5815387 -0.00087616 2.39627075 -0.00132751 C4.99905449 0.00075548 7.6011868 0.02406303 10.20385742 0.04760742 C12.01274768 0.05320512 13.8216425 0.0574744 15.63053894 0.06047058 C20.38337844 0.07190564 25.13594138 0.10136129 29.88867188 0.13458252 C35.59553055 0.17071848 41.30248188 0.18445094 47.0094223 0.20194244 C55.6720824 0.23099944 64.33413609 0.28849587 72.99682617 0.34057617 C72.99682617 25.09057617 72.99682617 49.84057617 72.99682617 75.34057617 C43.29682617 75.34057617 13.59682617 75.34057617 -17.00317383 75.34057617 C-17.08567383 64.57432617 -17.16817383 53.80807617 -17.25317383 42.71557617 C-17.28958984 39.32453613 -17.32600586 35.93349609 -17.36352539 32.43969727 C-17.37520934 29.74780918 -17.38540186 27.05591402 -17.39379883 24.36401367 C-17.40425232 23.6698233 -17.41470581 22.97563293 -17.42547607 22.26040649 C-17.45493377 20.19999779 -17.45879234 18.14091128 -17.45727539 16.08032227 C-17.46615784 14.92116302 -17.47504028 13.76200378 -17.48419189 12.56771851 C-16.74701179 7.62198925 -14.57590555 4.63642143 -10.75337219 1.48686218 C-7.1425184 -0.01814605 -3.84458332 -0.05607944 0 0 Z " fill="#3D5858" transform="translate(17.003173828125,90.659423828125)"/>
<path d="M0 0 C29.7 0 59.4 0 90 0 C90 19.8 90 39.6 90 60 C60.3 60 30.6 60 0 60 C0 40.2 0 20.4 0 0 Z " fill="#547983" transform="translate(0,166)"/>
<path d="M0 0 C10.56 0 21.12 0 32 0 C32 44.55 32 89.1 32 135 C21.44 135 10.88 135 0 135 C0 90.45 0 45.9 0 0 Z " fill="#293939" transform="translate(90,91)"/>
<path d="M0 0 C19.8 0 39.6 0 60 0 C60 19.8 60 39.6 60 60 C40.2 60 20.4 60 0 60 C0 40.2 0 20.4 0 0 Z " fill="#293939" transform="translate(317,361)"/>
<path d="M0 0 C12.41320939 -0.09038913 24.82619999 -0.16376706 37.23966408 -0.20724869 C43.00381325 -0.22811827 48.76772547 -0.25642495 54.53173828 -0.30175781 C60.09493716 -0.34523722 65.6579082 -0.36914184 71.22126389 -0.37950897 C73.34314943 -0.38689652 75.46502258 -0.40132266 77.58681107 -0.42292023 C80.56026348 -0.45198155 83.53277594 -0.45595479 86.50634766 -0.45410156 C87.82049652 -0.47567322 87.82049652 -0.47567322 89.16119385 -0.49768066 C94.59690668 -0.46105214 97.68951887 0.37626465 102 4 C106.05630398 9.22259857 105.77397544 14.65340142 105 21 C102.82845794 25.58436656 100.56341785 27.87639838 96 30 C92.87048796 30.42108261 89.77329508 30.3792399 86.61987305 30.34057617 C85.68280014 30.34101425 84.74572723 30.34145233 83.78025818 30.34190369 C80.69053128 30.33981778 77.60135057 30.31649577 74.51171875 30.29296875 C72.36652422 30.2873721 70.22132584 30.28310233 68.0761261 30.28010559 C62.4355507 30.26866231 56.79520779 30.23919936 51.15472412 30.20599365 C45.3968012 30.17528176 39.63884063 30.16159785 33.88085938 30.14648438 C22.58712111 30.11432931 11.29361628 30.06156538 0 30 C0 20.1 0 10.2 0 0 Z " fill="#3E5959" transform="translate(317,421)"/>
<path d="M0 0 C0.93707291 -0.00043808 1.87414581 -0.00087616 2.83961487 -0.00132751 C5.92934176 0.00075839 9.01852247 0.0240804 12.1081543 0.04760742 C14.25334883 0.05320407 16.39854721 0.05747384 18.54374695 0.06047058 C24.18432234 0.07191386 29.82466525 0.10137681 35.46514893 0.13458252 C41.22307185 0.16529442 46.98103241 0.17897833 52.73901367 0.1940918 C64.03275194 0.22624687 75.32625677 0.27901079 86.61987305 0.34057617 C86.61987305 10.24057617 86.61987305 20.14057617 86.61987305 30.34057617 C74.20666366 30.43096531 61.79367305 30.50434323 49.38020897 30.54782486 C43.6160598 30.56869444 37.85214757 30.59700112 32.08813477 30.64233398 C26.52493589 30.68581339 20.96196484 30.70971801 15.39860916 30.72008514 C13.27672362 30.72747269 11.15485047 30.74189883 9.03306198 30.7634964 C6.05960957 30.79255772 3.0870971 30.79653096 0.11352539 30.79467773 C-1.20062347 30.81624939 -1.20062347 30.81624939 -2.5413208 30.83825684 C-7.97703363 30.80162831 -11.06964583 29.96431152 -15.38012695 26.34057617 C-19.43643094 21.1179776 -19.15410239 15.68717475 -18.38012695 9.34057617 C-14.34325333 0.81828742 -8.61475052 -0.10562441 0 0 Z " fill="#537883" transform="translate(230.380126953125,420.659423828125)"/>
<path d="M0 0 C10.56 0 21.12 0 32 0 C32 19.8 32 39.6 32 60 C21.44 60 10.88 60 0 60 C0 40.2 0 20.4 0 0 Z " fill="#3E5959" transform="translate(90,166)"/>
<path d="M0 0 C3.5677811 2.35149209 5.84221079 4.99692157 7.75 8.8125 C8.34106487 14.49581608 8.02243416 18.96027003 4.75 23.8125 C0.35628126 27.87668983 -3.08164815 29.20423138 -9.125 29.08203125 C-12.81382866 28.61414673 -15.49620094 27.30137661 -18.25 24.8125 C-21.68120373 20.14646779 -23.09383459 15.61386278 -22.25 9.8125 C-20.50656517 4.92262954 -17.83049481 1.78115588 -13.17578125 -0.53125 C-8.56339171 -2.10301763 -4.58443247 -1.67508109 0 0 Z " fill="#5CC781" transform="translate(97.25,395.1875)"/>
<path d="M0 0 C0 9.9 0 19.8 0 30 C-8.4 28.8 -8.4 28.8 -12 25 C-14.61960863 20.2124394 -15.67958649 16.4366919 -15 11 C-13.4875308 6.72367341 -11.37995235 3.93219133 -7.5 1.5625 C-4 0 -4 0 0 0 Z " fill="#7FE484" transform="translate(90,394)"/>
</svg>
