<?xml version="1.0" encoding="UTF-8"?>
<svg version="1.1" xmlns="http://www.w3.org/2000/svg" width="512" height="512">
<path d="M0 0 C126.39 0 252.78 0 383 0 C383 59.73 383 119.46 383 181 C385.97 181 388.94 181 392 181 C427.69279998 184.57609811 459.84694366 204.84377047 482.57128906 231.86865234 C485.65146884 235.74402794 488.39880185 239.79083015 491 244 C491.39123047 244.63260742 491.78246094 245.26521484 492.18554688 245.91699219 C510.53350787 276.08556015 517.83893886 314.53897349 509.83178711 349.29541016 C509.26079465 351.5434384 508.6410863 353.7710379 508 356 C507.69449219 357.12003418 507.69449219 357.12003418 507.3828125 358.26269531 C497.26560515 394.65653842 471.94828776 423.79763388 439.46606445 442.2409668 C408.06052855 459.45341606 369.19000984 463.09596617 334.88769531 453.35717773 C316.21146568 447.72304587 298.75758939 438.82298103 284 426 C283.18144531 425.30261719 282.36289062 424.60523438 281.51953125 423.88671875 C269.21448116 413.14603162 258.46826279 400.61181851 251 386 C251 385.34 251 384.68 251 384 C168.17 384 85.34 384 0 384 C0 257.28 0 130.56 0 0 Z " fill="#FED700" transform="translate(0,27)"/>
<path d="M0 0 C0.78536133 0.24137695 1.57072266 0.48275391 2.37988281 0.73144531 C33.65704462 10.68156281 61.61588727 30.86962358 79 59 C79.5868457 59.94891113 79.5868457 59.94891113 80.18554688 60.91699219 C98.53350787 91.08556015 105.83893886 129.53897349 97.83178711 164.29541016 C97.26079465 166.5434384 96.6410863 168.7710379 96 171 C95.79632813 171.74668945 95.59265625 172.49337891 95.3828125 173.26269531 C85.26560515 209.65653842 59.94828776 238.79763388 27.46606445 257.2409668 C-3.93947145 274.45341606 -42.80999016 278.09596617 -77.11230469 268.35717773 C-95.78853432 262.72304587 -113.24241061 253.82298103 -128 241 C-129.22783203 239.95392578 -129.22783203 239.95392578 -130.48046875 238.88671875 C-158.21034458 214.68219147 -174.43703974 180.62372175 -177 144 C-178.66775889 104.1090104 -166.72841585 68.84875632 -139.859375 39.04296875 C-105.60066097 2.11994218 -48.64325166 -15.08134428 0 0 Z " fill="#01B1FC" transform="translate(412,212)"/>
<path d="M0 0 C63.36 0 126.72 0 192 0 C192 59.73 192 119.46 192 181 C178.635 181.495 178.635 181.495 165 182 C160.30197496 182.67736715 156.13936024 183.32125472 151.625 184.5 C150.56812988 184.76135742 149.51125977 185.02271484 148.42236328 185.29199219 C126.81785023 190.93246743 107.76120244 201.32742092 91 216 C90.17242187 216.68320313 89.34484375 217.36640625 88.4921875 218.0703125 C71.31752488 232.66069986 59.69331055 253.08657535 52 274 C51.51273438 275.27230469 51.51273438 275.27230469 51.015625 276.5703125 C39.17956676 309.30063683 43.79925054 347.2008614 57.86328125 378.3046875 C59 381 59 381 59 383 C39.86 383 20.72 383 1 383 C0.83137752 346.30353263 0.66721793 309.60704758 0.50904435 272.91053379 C0.50002784 270.81895722 0.49100109 268.7273807 0.48197412 266.63580418 C-0.03673341 146.36835325 -0.03673341 146.36835325 -0.06640625 93.53515625 C-0.06688611 92.72755442 -0.06736597 91.9199526 -0.06786036 91.08787799 C-0.0849386 60.72522972 -0.03426933 30.36262626 0 0 Z " fill="#FEC200" transform="translate(191,27)"/>
<path d="M0 0 C0 18.15 0 36.3 0 55 C-4.95 55 -9.9 55 -15 55 C-15 87.34 -15 119.68 -15 153 C-10.05 153 -5.1 153 0 153 C0 193.92 0 234.84 0 277 C-16.37459416 277 -16.37459416 277 -22.875 275.8125 C-23.62765137 275.6794043 -24.38030273 275.54630859 -25.15576172 275.40917969 C-48.54991443 271.02369583 -71.01411698 260.62806979 -89 245 C-90.22783203 243.95392578 -90.22783203 243.95392578 -91.48046875 242.88671875 C-119.21034458 218.68219147 -135.43703974 184.62372175 -138 148 C-139.66775889 108.1090104 -127.72841585 72.84875632 -100.859375 43.04296875 C-81.60119004 22.2870678 -55.87165938 8.38661558 -28.4375 2.0625 C-27.55312256 1.85077148 -26.66874512 1.63904297 -25.75756836 1.42089844 C-16.82491639 -0.47633058 -9.64645082 0 0 0 Z " fill="#55CAFC" transform="translate(373,208)"/>
<path d="M0 0 C18.48 0 36.96 0 56 0 C56 46.53 56 93.06 56 141 C37.52 141 19.04 141 0 141 C0 94.47 0 47.94 0 0 Z " fill="#FF6319" transform="translate(191,27)"/>
<path d="M0 0 C18.15 0 36.3 0 55 0 C55 46.53 55 93.06 55 141 C36.85 141 18.7 141 0 141 C0 94.47 0 47.94 0 0 Z " fill="#FF9000" transform="translate(136,27)"/>
<path d="M0 0 C10.23 0 20.46 0 31 0 C31 22.44 31 44.88 31 68 C46.18 68 61.36 68 77 68 C77 77.9 77 87.8 77 98 C51.59 98 26.18 98 0 98 C0 65.66 0 33.32 0 0 Z " fill="#003266" transform="translate(358,263)"/>
<path d="M0 0 C29.04 0 58.08 0 88 0 C88 9.9 88 19.8 88 30 C58.96 30 29.92 30 0 30 C0 20.1 0 10.2 0 0 Z " fill="#FF9000" transform="translate(52,325)"/>
<path d="M0 0 C29.04 0 58.08 0 88 0 C88 9.9 88 19.8 88 30 C58.96 30 29.92 30 0 30 C0 20.1 0 10.2 0 0 Z " fill="#FF9000" transform="translate(52,268)"/>
<path d="M0 0 C10.23 0 20.46 0 31 0 C31 22.44 31 44.88 31 68 C30.67 68 30.34 68 30 68 C30 45.89 30 23.78 30 1 C25.38 1 20.76 1 16 1 C16 33.01 16 65.02 16 98 C10.72 98 5.44 98 0 98 C0 65.66 0 33.32 0 0 Z " fill="#024D85" transform="translate(358,263)"/>
</svg>
