<?xml version="1.0" encoding="UTF-8"?>
<svg version="1.1" xmlns="http://www.w3.org/2000/svg" width="512" height="512">
<path d="M0 0 C1.21724331 -0.00644889 2.43448662 -0.01289778 3.6886161 -0.0195421 C5.0361204 -0.01659994 6.38362429 -0.01346451 7.73112774 -0.01015663 C9.16517444 -0.01389339 10.5992191 -0.01849501 12.03326052 -0.02388728 C15.97428991 -0.03612962 19.91523448 -0.03585536 23.85627854 -0.03349853 C28.10656713 -0.03309067 32.35682841 -0.04412652 36.6071043 -0.05361366 C44.93439938 -0.07023142 53.26166615 -0.07572356 61.58897642 -0.07683842 C68.35748131 -0.07778853 75.12597686 -0.08189697 81.8944788 -0.08823967 C101.08187738 -0.10585422 120.26925358 -0.11507821 139.45666031 -0.11357872 C140.49120597 -0.11349881 141.52575162 -0.1134189 142.59164715 -0.11333656 C143.6274551 -0.1132548 144.66326305 -0.11317304 145.73045912 -0.1130888 C162.51834448 -0.11227585 179.30614013 -0.1314153 196.09399954 -0.1596133 C213.329152 -0.1883343 230.5642607 -0.20215402 247.7994377 -0.20042574 C257.47668603 -0.19976157 267.15384031 -0.20526587 276.83106709 -0.22678185 C285.07038805 -0.24498333 293.30957234 -0.24934949 301.54890469 -0.235763 C305.75245434 -0.2292281 309.9557417 -0.22913483 314.15926647 -0.2464695 C318.0091428 -0.26218244 321.85854849 -0.25935511 325.70841321 -0.24190123 C327.09938148 -0.23882738 328.49038472 -0.24247832 329.88131175 -0.25362138 C339.00911875 -0.32188977 345.3840412 0.18613297 352.43319988 6.44086266 C353.38066082 7.55654625 353.38066082 7.55654625 354.34726238 8.69476891 C354.99437176 9.43597984 355.64148113 10.17719078 356.30819988 10.94086266 C361.15565731 17.68861443 360.75628386 25.30271765 359.97226238 33.25726891 C357.99333683 40.02448754 354.10634809 45.65755865 347.97226238 49.25726891 C341.90075713 52.00933681 337.08913246 52.6549138 330.47226238 52.44476891 C329.64984051 52.43123375 328.82741863 52.41769859 327.98007488 52.40375328 C325.97718017 52.36881907 323.97462882 52.31502948 321.97226238 52.25726891 C321.79769512 53.28921127 321.79769512 53.28921127 321.61960125 54.34200096 C320.88217329 57.66298197 319.79815574 60.71131907 318.61484051 63.90155602 C318.37555828 64.54969765 318.13627605 65.19783928 317.88974285 65.86562157 C317.09810535 68.0067044 316.30098633 70.14569747 315.50351238 72.28461266 C314.94335269 73.79409712 314.38342027 75.30366594 313.82370281 76.81331444 C312.64584665 79.98752223 311.46528582 83.16070728 310.28280926 86.33319664 C308.79307321 90.33064835 307.30989143 94.33049261 305.82862473 98.33108902 C281.00573478 165.34003716 281.00573478 165.34003716 259.97226238 187.25726891 C258.74443035 188.57984703 258.74443035 188.57984703 257.49179363 189.92914391 C250.32817025 197.42079141 242.48550143 203.39357992 233.97226238 209.25726891 C233.3158073 209.71053551 232.65935223 210.16380211 231.98300457 210.63080406 C224.84529052 215.53250204 217.68170683 220.28763626 209.97226238 224.25726891 C210.78566082 224.69555016 211.59905926 225.13383141 212.43710613 225.58539391 C255.7890641 249.5777036 279.66637021 281.07071522 296.83407879 326.59662437 C298.46940903 330.93187183 300.11426153 335.26345233 301.76278973 339.59369469 C304.38815327 346.48996988 307.0073746 353.38855404 309.62262249 360.28867149 C310.68907791 363.1022807 311.75735073 365.91518994 312.82702923 368.7275753 C314.10416528 372.08643234 315.37617073 375.44719047 316.64443684 378.80940628 C317.35034272 380.67720129 318.06118402 382.54312863 318.77211285 384.40901756 C319.19426571 385.53102058 319.61641857 386.65302361 320.05136395 387.80902672 C320.60996105 389.28426811 320.60996105 389.28426811 321.17984295 390.78931236 C321.97226238 393.25726891 321.97226238 393.25726891 321.97226238 396.25726891 C323.17882488 396.22246422 324.38538738 396.18765953 325.62851238 396.15180016 C327.24308167 396.12363906 328.85766617 396.09634141 330.47226238 396.06976891 C331.65948895 396.03206383 331.65948895 396.03206383 332.87069988 395.99359703 C341.53718207 395.88704192 347.89503954 398.2765181 354.20663738 404.26508141 C360.13606987 410.95537028 360.63110759 417.99665088 360.34335613 426.73383141 C359.46094889 435.11205599 355.49891056 439.17139519 349.28866863 444.59320641 C344.94469227 447.71383698 341.24941411 448.50742605 335.94452477 448.51453781 C334.72728145 448.5209867 333.51003814 448.5274356 332.25590867 448.53407991 C330.90840437 448.53113775 329.56090048 448.52800232 328.21339703 448.52469444 C326.77935033 448.5284312 325.34530567 448.53303282 323.91126424 448.53842509 C319.97023486 448.55066743 316.02929029 448.55039317 312.08824623 448.54803634 C307.83795764 448.54762848 303.58769635 448.55866433 299.33742046 448.56815147 C291.01012538 448.58476923 282.68285862 448.59026137 274.35554834 448.59137623 C267.58704345 448.59232634 260.8185479 448.59643478 254.05004597 448.60277748 C234.86264738 448.62039204 215.67527118 448.62961602 196.48786446 448.62811653 C195.4533188 448.62803662 194.41877314 448.62795671 193.35287762 448.62787437 C192.31706967 448.62779261 191.28126172 448.62771085 190.21406565 448.62762661 C173.42618029 448.62681366 156.63838463 448.64595311 139.85052522 448.67415111 C122.61537276 448.70287211 105.38026407 448.71669183 88.14508706 448.71496356 C78.46783874 448.71429938 68.79068446 448.71980368 59.11345768 448.74131966 C50.87413672 448.75952114 42.63495242 448.7638873 34.39562007 448.75030081 C30.19207043 448.74376591 25.98878307 448.74367264 21.78525829 448.76100731 C17.93538197 448.77672026 14.08597628 448.77389292 10.23611156 448.75643905 C8.84514329 448.7533652 7.45414005 448.75701613 6.06321301 448.7681592 C-3.06459399 448.83642758 -9.43951644 448.32840484 -16.48867512 442.07367516 C-17.43613605 440.95799156 -17.43613605 440.95799156 -18.40273762 439.81976891 C-19.04984699 439.07855797 -19.69695637 438.33734703 -20.36367512 437.57367516 C-25.21113255 430.82592338 -24.8117591 423.21182016 -24.02773762 415.25726891 C-22.04881206 408.49005027 -18.16182332 402.85697916 -12.02773762 399.25726891 C-5.95623237 396.50520101 -1.1446077 395.85962401 5.47226238 396.06976891 C6.29468426 396.08330406 7.11710613 396.09683922 7.96444988 396.11078453 C9.9673446 396.14571874 11.96989594 396.19950834 13.97226238 396.25726891 C14.08864056 395.56930733 14.20501873 394.88134575 14.32492352 394.17253685 C15.06235147 390.85155584 16.14636902 387.80321874 17.32968426 384.6129818 C17.6886076 383.64076935 17.6886076 383.64076935 18.05478191 382.64891624 C18.84641941 380.50783341 19.64353844 378.36884034 20.44101238 376.22992516 C21.00117208 374.72044069 21.56110449 373.21087187 22.12082195 371.70122337 C23.29867812 368.52701558 24.47923894 365.35383053 25.66171551 362.18134117 C27.15145156 358.18388946 28.63463334 354.18404521 30.11590004 350.18344879 C54.93878998 283.17450065 54.93878998 283.17450065 75.97226238 261.25726891 C76.79081707 260.37555016 77.60937176 259.49383141 78.45273113 258.58539391 C85.61734643 251.09270907 93.4610739 245.12545388 101.97226238 239.25726891 C102.96492107 238.56939293 102.96492107 238.56939293 103.97763348 237.86762047 C105.94842679 236.50835343 107.92656214 235.16085922 109.90976238 233.81976891 C110.49983074 233.4187899 111.0898991 233.0178109 111.69784832 232.60468102 C122.75232855 225.25726891 122.75232855 225.25726891 126.97226238 225.25726891 C126.97226238 224.59726891 126.97226238 223.93726891 126.97226238 223.25726891 C126.2980827 223.18121422 125.62390301 223.10515953 124.92929363 223.02680016 C121.0579467 222.01932942 117.99264065 220.07988131 114.65976238 217.94476891 C113.96479656 217.5039901 113.26983074 217.06321129 112.55380535 216.60907555 C100.94707969 209.13269469 89.95326631 200.80648232 79.97226238 191.25726891 C79.10472332 190.46449547 78.23718426 189.67172203 77.34335613 188.85492516 C57.71838799 170.2907661 48.44448764 146.6702402 39.11044598 121.91791344 C37.47511574 117.58266598 35.83026324 113.25108548 34.18173504 108.92084312 C31.55637149 102.02456793 28.93715016 95.12598377 26.32190228 88.22586632 C25.25544685 85.41225711 24.18717404 82.59934788 23.11749554 79.78696251 C21.84035948 76.42810547 20.56835404 73.06734734 19.30008793 69.70513153 C18.59418205 67.83733652 17.88334075 65.97140918 17.17241192 64.10552025 C16.75025906 62.98351723 16.32810619 61.86151421 15.89316082 60.70551109 C15.52076275 59.72201683 15.14836468 58.73852257 14.76468182 57.72522545 C13.97226238 55.25726891 13.97226238 55.25726891 13.97226238 52.25726891 C12.16241863 52.30947594 12.16241863 52.30947594 10.31601238 52.36273766 C8.7014431 52.39089875 7.08685859 52.4181964 5.47226238 52.44476891 C4.28503582 52.48247398 4.28503582 52.48247398 3.07382488 52.52094078 C-5.5926573 52.62749589 -11.95051478 50.23801971 -18.26211262 44.24945641 C-24.19154511 37.55916754 -24.68658282 30.51788693 -24.39883137 21.78070641 C-23.51642412 13.40248182 -19.55438579 9.34314262 -13.34414387 3.92133141 C-9.00016751 0.80070084 -5.30488935 0.00711176 0 0 Z " fill="#D8EBFD" transform="translate(88.02773761749268,31.74273109436035)"/>
<path d="M0 0 C1.14115265 -0.00852997 2.2823053 -0.01705994 3.45803833 -0.02584839 C4.7059314 -0.02494202 5.95382446 -0.02403564 7.23953247 -0.02310181 C8.55696442 -0.02981903 9.87439636 -0.03653625 11.23175049 -0.04345703 C14.84339014 -0.06111721 18.45493502 -0.06581241 22.06661367 -0.0670886 C24.32405297 -0.06851076 26.5814682 -0.07278158 28.83890152 -0.07808304 C36.71725239 -0.09658342 44.5955356 -0.10475365 52.47390747 -0.10317993 C59.81303542 -0.10197854 67.15186928 -0.12308016 74.49092281 -0.15466726 C80.79594233 -0.18083505 87.10086582 -0.19154702 93.40593922 -0.19026911 C97.16989999 -0.18975962 100.93359937 -0.19543547 104.69750595 -0.21662521 C108.23856868 -0.23601636 111.77912094 -0.23612665 115.32020187 -0.22159195 C117.23464179 -0.21851021 119.1490818 -0.23517429 121.06344604 -0.25247192 C127.4408027 -0.2058205 131.596929 -0.13381771 136.39627075 4.26742554 C139.13375158 7.75149205 138.89384663 12.02605188 138.39627075 16.26742554 C137.37627703 19.36079091 135.94930014 22.18867603 134.45877075 25.07992554 C133.6258111 26.75394307 132.79380737 28.42843654 131.962677 30.10336304 C131.53486938 30.95511108 131.10706177 31.80685913 130.66629028 32.68441772 C129.42744968 35.2040128 128.25836112 37.74405397 127.1111145 40.30648804 C122.7850172 49.92765229 118.2670548 58.18131891 111.39627075 66.26742554 C110.71177856 67.11305054 110.02728638 67.95867554 109.322052 68.82992554 C100.90891734 78.78261719 89.98439351 88.23477028 77.39627075 92.26742554 C76.40627075 92.26742554 75.41627075 92.26742554 74.39627075 92.26742554 C74.39627075 110.08742554 74.39627075 127.90742554 74.39627075 146.26742554 C77.36627075 146.92742554 80.33627075 147.58742554 83.39627075 148.26742554 C107.70252801 157.60049117 125.71383544 185.7246258 136.39627075 208.26742554 C139.45133906 215.25348437 142.1329867 222.38899056 144.83377075 229.51742554 C145.54567205 231.37327409 146.25855876 233.22874495 146.97244263 235.08383179 C148.54450336 239.17258474 150.10742845 243.26467546 151.66015625 247.36080933 C152.27153159 248.94433761 152.91932384 250.51374861 153.57620239 252.07894897 C154.86435015 255.51656628 155.18976994 258.71012833 154.39627075 262.26742554 C152.31787435 265.58903451 149.93175151 268.49968516 146.39627075 270.26742554 C144.20780263 270.37477175 142.01600086 270.41579453 139.82493591 270.42805481 C138.80072588 270.43568654 138.80072588 270.43568654 137.75582474 270.44347245 C135.45669489 270.45922938 133.15759653 270.46773054 130.85842896 270.47616577 C129.21433816 270.48570171 127.5702494 270.49559275 125.92616272 270.5058136 C120.51648347 270.53723168 115.10678869 270.55747047 109.697052 270.57601929 C108.31696823 270.58096527 108.31696823 270.58096527 106.90900397 270.58601117 C98.23310116 270.61679569 89.55719492 270.6435061 80.88125324 270.66042995 C69.78069599 270.68233628 58.6806225 270.72430107 47.58025867 270.79386753 C39.77720379 270.84110988 31.97427942 270.86536391 24.17108601 270.87262684 C19.50987907 270.87758322 14.84921702 270.89266209 10.18816566 270.93237114 C5.80082733 270.96925473 1.41434466 270.97764181 -2.97311974 270.96436501 C-4.58116073 270.96441893 -6.18923978 270.97470506 -7.79713821 270.99611664 C-21.45540381 271.16823494 -21.45540381 271.16823494 -26.05278015 267.34886169 C-29.25859561 263.91280117 -29.90489555 261.32848729 -29.83590698 256.5730896 C-29.41173151 252.36077297 -27.88947436 248.57444636 -26.38497925 244.64242554 C-26.04881592 243.73726196 -25.71265259 242.83209839 -25.36630249 241.89950562 C-24.65289901 239.98772566 -23.93308162 238.07832829 -23.20724487 236.17123413 C-22.11970453 233.30946315 -21.0554784 230.43986167 -19.99435425 227.56820679 C-8.18908778 195.95467464 9.54018126 163.01477034 41.27127075 147.82992554 C44.79451676 146.229059 46.17402106 146.26742554 50.39627075 146.26742554 C50.06627075 128.77742554 49.73627075 111.28742554 49.39627075 93.26742554 C46.09627075 91.94742554 42.79627075 90.62742554 39.39627075 89.26742554 C14.22034101 76.21446988 1.8844252 51.82653911 -9.22872925 27.07992554 C-9.6670105 26.12424683 -10.10529175 25.16856812 -10.55685425 24.18392944 C-13.00349489 18.58329278 -14.26629279 14.38599706 -13.60372925 8.26742554 C-10.24627543 1.79233602 -7.13247914 0.02411247 0 0 Z " fill="#54A0FE" transform="translate(193.60372924804688,141.73257446289063)"/>
<path d="M0 0 C1.42013788 -0.0034599 2.84027307 -0.0082267 4.26040268 -0.01418173 C8.14909797 -0.02667576 12.03757166 -0.02052869 15.92626762 -0.01122308 C20.12538002 -0.00442636 24.3244547 -0.01491691 28.52355957 -0.02316284 C36.74418508 -0.03649571 44.96472837 -0.03362442 53.18535709 -0.02492492 C59.86702715 -0.01814703 66.54867417 -0.01723211 73.23034668 -0.02049637 C74.65734253 -0.02118592 74.65734253 -0.02118592 76.11316657 -0.0218894 C78.04583646 -0.02284858 79.97850633 -0.02382122 81.9111762 -0.02480717 C100.02959064 -0.03335976 118.14795952 -0.02352898 136.26636648 -0.00740607 C151.8094364 0.00599699 167.3524391 0.00366886 182.89550781 -0.01016235 C200.94953137 -0.02622047 219.00351501 -0.0325358 237.05754471 -0.02332556 C238.98306528 -0.02236993 240.90858586 -0.02142681 242.83410645 -0.02049637 C244.25515895 -0.01980213 244.25515895 -0.01980213 245.70491958 -0.01909386 C252.37779305 -0.01650467 259.05064119 -0.02087345 265.72351074 -0.02793503 C273.85661586 -0.03635279 281.98963412 -0.03406405 290.1227293 -0.0180928 C294.27157051 -0.01021382 298.42026695 -0.00711211 302.56910706 -0.01704025 C306.36884278 -0.02599541 310.16829989 -0.02104093 313.96801043 -0.0051076 C315.98978107 -0.00018192 318.01157113 -0.00994897 320.03332138 -0.02027929 C329.87065981 0.04336163 336.94872057 1.44541965 344.26660156 8.38876343 C350.19603405 15.0790523 350.69107177 22.1203329 350.40332031 30.85751343 C349.52091307 39.23573801 345.55887474 43.29507722 339.34863281 48.71688843 C335.00465645 51.837519 331.30937829 52.63110807 326.00448895 52.63821983 C324.78724563 52.64466873 323.57000232 52.65111762 322.31587285 52.65776193 C320.96836855 52.65481977 319.62086466 52.65168434 318.27336121 52.64837646 C316.83931451 52.65211322 315.40526985 52.65671484 313.97122842 52.66210711 C310.03019904 52.67434945 306.08925447 52.6740752 302.14821041 52.67171836 C297.89792182 52.6713105 293.64766053 52.68234635 289.39738464 52.6918335 C281.07008956 52.70845125 272.7428228 52.71394339 264.41551252 52.71505825 C257.64700763 52.71600836 250.87851208 52.7201168 244.11001015 52.7264595 C224.92261156 52.74407406 205.73523536 52.75329804 186.54782864 52.75179856 C185.51328298 52.75171864 184.47873732 52.75163873 183.4128418 52.7515564 C182.37703385 52.75147464 181.3412259 52.75139287 180.27402983 52.75130863 C163.48614447 52.75049568 146.69834881 52.76963514 129.9104894 52.79783313 C112.67533694 52.82655413 95.44022825 52.84037385 78.20505124 52.83864558 C68.52780292 52.8379814 58.85064864 52.84348571 49.17342186 52.86500168 C40.9341009 52.88320316 32.6949166 52.88756932 24.45558425 52.87398283 C20.25203461 52.86744794 16.04874725 52.86735466 11.84522247 52.88468933 C7.99534615 52.90040228 4.14594046 52.89757494 0.29607574 52.88012107 C-1.09489253 52.87704722 -2.48589577 52.88069816 -3.87682281 52.89184122 C-13.00462981 52.96010961 -19.37955226 52.45208686 -26.42871094 46.19735718 C-27.06035156 45.45356812 -27.69199219 44.70977905 -28.34277344 43.94345093 C-28.98988281 43.20223999 -29.63699219 42.46102905 -30.30371094 41.69735718 C-35.15116837 34.9496054 -34.75179492 27.33550218 -33.96777344 19.38095093 C-31.98884788 12.6137323 -28.10185914 6.98066119 -21.96777344 3.38095093 C-14.66621515 -0.10026442 -8.0005521 -0.04087954 0 0 Z " fill="#3E4B5A" transform="translate(97.9677734375,427.6190490722656)"/>
<path d="M0 0 C1.21724331 -0.00644889 2.43448662 -0.01289778 3.6886161 -0.0195421 C5.0361204 -0.01659994 6.38362429 -0.01346451 7.73112774 -0.01015663 C9.16517444 -0.01389339 10.5992191 -0.01849501 12.03326052 -0.02388728 C15.97428991 -0.03612962 19.91523448 -0.03585536 23.85627854 -0.03349853 C28.10656713 -0.03309067 32.35682841 -0.04412652 36.6071043 -0.05361366 C44.93439938 -0.07023142 53.26166615 -0.07572356 61.58897642 -0.07683842 C68.35748131 -0.07778853 75.12597686 -0.08189697 81.8944788 -0.08823967 C101.08187738 -0.10585422 120.26925358 -0.11507821 139.45666031 -0.11357872 C140.49120597 -0.11349881 141.52575162 -0.1134189 142.59164715 -0.11333656 C143.6274551 -0.1132548 144.66326305 -0.11317304 145.73045912 -0.1130888 C162.51834448 -0.11227585 179.30614013 -0.1314153 196.09399954 -0.1596133 C213.329152 -0.1883343 230.5642607 -0.20215402 247.7994377 -0.20042574 C257.47668603 -0.19976157 267.15384031 -0.20526587 276.83106709 -0.22678185 C285.07038805 -0.24498333 293.30957234 -0.24934949 301.54890469 -0.235763 C305.75245434 -0.2292281 309.9557417 -0.22913483 314.15926647 -0.2464695 C318.0091428 -0.26218244 321.85854849 -0.25935511 325.70841321 -0.24190123 C327.09938148 -0.23882738 328.49038472 -0.24247832 329.88131175 -0.25362138 C339.00911875 -0.32188977 345.3840412 0.18613297 352.43319988 6.44086266 C353.38066082 7.55654625 353.38066082 7.55654625 354.34726238 8.69476891 C354.99437176 9.43597984 355.64148113 10.17719078 356.30819988 10.94086266 C361.15565731 17.68861443 360.75628386 25.30271765 359.97226238 33.25726891 C357.99333683 40.02448754 354.10634809 45.65755865 347.97226238 49.25726891 C340.67070409 52.73848425 334.00504105 52.67909937 326.00448895 52.63821983 C324.58435107 52.64167974 323.16421587 52.64644653 321.74408627 52.65240157 C317.85539098 52.66489559 313.96691728 52.65874853 310.07822132 52.64944291 C305.87910893 52.64264619 301.68003424 52.65313674 297.48092937 52.66138268 C289.26030386 52.67471555 281.03976057 52.67184425 272.81913185 52.66314475 C266.1374618 52.65636687 259.45581477 52.65545194 252.77414227 52.6587162 C251.34714642 52.65940575 251.34714642 52.65940575 249.89132237 52.66010923 C247.95865249 52.66106842 246.02598261 52.66204105 244.09331274 52.663027 C225.97489831 52.67157959 207.85652943 52.66174882 189.73812246 52.6456259 C174.19505254 52.63222284 158.65204984 52.63455097 143.10898113 52.64838219 C125.05495758 52.66444031 107.00097394 52.67075563 88.94694424 52.6615454 C87.02142366 52.66058976 85.09590308 52.65964665 83.1703825 52.6587162 C81.74933 52.65802196 81.74933 52.65802196 80.29956937 52.6573137 C73.62669589 52.65472451 66.95384775 52.65909328 60.2809782 52.66615486 C52.14787309 52.67457263 44.01485482 52.67228389 35.88175964 52.65631263 C31.73291844 52.64843365 27.58422199 52.64533195 23.43538189 52.65526009 C19.63564616 52.66421524 15.83618906 52.65926076 12.03647852 52.64332743 C10.01470788 52.63840176 7.99291782 52.64816881 5.97116756 52.65849912 C-3.86617087 52.5948582 -10.94423163 51.19280018 -18.26211262 44.24945641 C-24.19154511 37.55916754 -24.68658282 30.51788693 -24.39883137 21.78070641 C-23.51642412 13.40248182 -19.55438579 9.34314262 -13.34414387 3.92133141 C-9.00016751 0.80070084 -5.30488935 0.00711176 0 0 Z " fill="#3E4B5A" transform="translate(88.02773761749268,31.74273109436035)"/>
</svg>
