<?xml version="1.0" encoding="UTF-8"?>
<svg version="1.1" xmlns="http://www.w3.org/2000/svg" width="512" height="512">
<path d="M0 0 C17.09999939 15.71571373 31.15010792 32.64009042 42.84570312 52.69628906 C43.36874023 53.57969971 43.36874023 53.57969971 43.90234375 54.48095703 C69.44075674 98.05007556 69.84570312 144.10586594 69.84570312 193.69628906 C-67.43429687 193.69628906 -204.71429688 193.69628906 -346.15429688 193.69628906 C-346.15429688 133.92839738 -346.15429688 133.92839738 -343.15429688 118.69628906 C-342.97737305 117.79362305 -342.80044922 116.89095703 -342.61816406 115.9609375 C-331.63827522 62.12345145 -300.49142851 13.72804152 -254.64111328 -16.98730469 C-243.28429646 -24.44437704 -231.70744116 -31.08817149 -219.15429688 -36.30371094 C-218.43661133 -36.60470703 -217.71892578 -36.90570313 -216.97949219 -37.21582031 C-199.29735255 -44.49989892 -180.1972878 -49.40925318 -161.15429688 -51.30371094 C-160.1565625 -51.41328125 -159.15882813 -51.52285156 -158.13085938 -51.63574219 C-100.91459594 -57.04030108 -42.78791121 -38.48947007 0 0 Z " fill="#31CC31" transform="translate(394.154296875,318.3037109375)"/>
<path d="M0 0 C0.65880157 0.00054382 1.31760315 0.00108765 1.99636841 0.00164795 C12.95238411 0.04311848 23.02808484 0.92633618 33.4375 4.375 C34.07606934 4.58398926 34.71463867 4.79297852 35.37255859 5.00830078 C51.32578682 10.4233935 65.15114035 18.94640644 77.4375 30.375 C78.32050781 31.17679688 79.20351563 31.97859375 80.11328125 32.8046875 C86.94138835 39.28236298 92.28288944 46.54879251 97.4375 54.375 C98.076875 55.34179688 98.71625 56.30859375 99.375 57.3046875 C115.87444905 83.89531744 121.16499719 119.0821202 114.41796875 149.5234375 C108.58790924 172.42558361 99.4812038 191.93517984 83.4375 209.375 C82.63570312 210.25929687 81.83390625 211.14359375 81.0078125 212.0546875 C66.98944346 226.80844639 48.94860493 236.94152774 29.4375 242.375 C28.33921875 242.6946875 27.2409375 243.014375 26.109375 243.34375 C-1.14841458 250.0648488 -31.3431886 244.97883686 -55.57421875 231.21875 C-64.3524931 225.8026121 -72.06435565 219.43359796 -79.5625 212.375 C-80.16578125 211.83617187 -80.7690625 211.29734375 -81.390625 210.7421875 C-87.44703871 205.11028877 -91.94280847 198.18243536 -96.5625 191.375 C-97.12066406 190.57449219 -97.67882812 189.77398437 -98.25390625 188.94921875 C-115.49522356 162.50000446 -120.0032751 126.04515246 -113.59765625 95.56640625 C-107.91223329 71.54309472 -96.66548353 51.11965391 -79.5625 33.375 C-78.84449219 32.58222656 -78.12648437 31.78945313 -77.38671875 30.97265625 C-57.82081223 10.00655303 -28.05443855 -0.03921952 0 0 Z " fill="#006400" transform="translate(255.5625,-0.375)"/>
<path d="M0 0 C0 81.18 0 162.36 0 246 C-68.64 246 -137.28 246 -208 246 C-208 186.23210832 -208 186.23210832 -205 171 C-204.82307617 170.09733398 -204.64615234 169.19466797 -204.46386719 168.26464844 C-193.48397835 114.42716239 -162.33713164 66.03175246 -116.48681641 35.31640625 C-105.12999958 27.8593339 -93.55314429 21.21553945 -81 16 C-80.28231445 15.69900391 -79.56462891 15.39800781 -78.82519531 15.08789062 C-61.15245436 7.80768377 -42.03783407 2.86978727 -23 1 C-21.88625 0.89042969 -20.7725 0.78085937 -19.625 0.66796875 C-13.01773325 0.09442129 -6.6774684 0 0 0 Z " fill="#006300" transform="translate(256,266)"/>
<path d="M0 0 C17.4735012 0 17.4735012 0 24 1.625 C24.75071777 1.80393799 25.50143555 1.98287598 26.27490234 2.16723633 C45.58480114 7.00389068 62.49243475 16.5052732 77 30 C78.32451172 31.20269531 78.32451172 31.20269531 79.67578125 32.4296875 C86.50388835 38.90736298 91.84538944 46.17379251 97 54 C97.639375 54.96679688 98.27875 55.93359375 98.9375 56.9296875 C115.43694905 83.52031744 120.72749719 118.7071202 113.98046875 149.1484375 C108.15040924 172.05058361 99.0437038 191.56017984 83 209 C82.19820313 209.88429687 81.39640625 210.76859375 80.5703125 211.6796875 C63.24256249 229.91643423 38.98440442 242.08712631 14 245 C9.38 245 4.76 245 0 245 C0 164.15 0 83.3 0 0 Z " fill="#31CC31" transform="translate(256,0)"/>
</svg>
